<svg xmlns="http://www.w3.org/2000/svg" width="512" height="512" viewBox="0 0 512 512" version="1.1">
	<path d="M 200 18.321 C 183.696 25.060, 168.463 39.182, 160.560 54.886 C 154.974 65.984, 152.855 74.237, 152.264 87.188 L 151.731 98.875 132.875 89.438 C 122.505 84.247, 112.870 80, 111.465 80 C 108.048 80, 103.999 84.180, 104.003 87.705 C 104.005 89.385, 107.541 96.681, 112.870 106 L 121.734 121.500 112.978 123.708 C 88.878 129.786, 65.296 143.769, 49.365 161.427 C 14.721 199.828, 6.205 254.842, 27.628 301.851 C 41.635 332.587, 70.697 358.586, 103.176 369.435 C 116.293 373.817, 123.922 375.069, 141.250 375.683 L 158 376.277 158 372.138 L 158 368 167 368 L 176 368 176 373.824 C 176 382.065, 178.727 396.955, 182.167 407.500 C 196.020 449.964, 229.631 481.075, 274.203 492.692 L 284.500 495.375 331.500 495.754 C 371.876 496.079, 379.903 495.898, 388.452 494.470 C 450.812 484.059, 496 430.902, 496 367.955 C 496 312.477, 460.531 263.657, 407.500 246.144 C 392.243 241.105, 382.609 240, 353.939 240 L 328.230 240 327.046 231.902 C 326.395 227.448, 325.637 223.218, 325.362 222.501 C 325.024 221.620, 326.179 220.977, 328.931 220.512 C 331.169 220.134, 333 219.454, 333 219.002 C 333 218.550, 331.627 213.977, 329.949 208.840 C 316.088 166.413, 282.094 134.571, 239.081 123.723 L 230.266 121.500 239.130 106 C 244.459 96.681, 247.995 89.385, 247.997 87.705 C 248.001 84.180, 243.952 80, 240.535 80 C 239.130 80, 229.365 84.312, 218.835 89.582 L 199.691 99.165 200.304 91.332 C 201.446 76.732, 205.807 68.066, 217.381 57.399 C 222.066 53.081, 224 50.586, 224 48.858 C 224 44.424, 215.141 19.607, 212.895 17.750 C 210.081 15.424, 206.641 15.576, 200 18.321" stroke="none" fill="black" fill-rule="evenodd"/>
</svg>